<?xml version="1.0" encoding="utf-8"?>
<!-- Generator: Adobe Illustrator 21.0.2, SVG Export Plug-In . SVG Version: 6.00 Build 0)  -->
<svg version="1.1" id="Layer_1" xmlns="http://www.w3.org/2000/svg" xmlns:xlink="http://www.w3.org/1999/xlink" x="0px" y="0px"
	 viewBox="0 0 236 33" style="enable-background:new 0 0 236 33;" xml:space="preserve">
<style type="text/css">
	.st0{fill:#0589AE;}
	.st1{fill:#58595B;}
</style>
<g>
	<g>
		<path class="st0" d="M120.9,27.8c-0.3,0-0.6-0.1-0.9-0.3c-0.6-0.4-0.7-1.1-0.2-1.5c2.6-2.5,4.1-5.7,4.1-9c0-3.8-1.8-7.3-5.2-10
			c-0.5-0.4-0.5-1.1,0-1.6c0.5-0.4,1.4-0.4,2,0c3.9,3.1,6,7.2,6,11.5c0,3.8-1.7,7.5-4.7,10.4C121.7,27.7,121.3,27.8,120.9,27.8
			L120.9,27.8z"/>
		<path class="st0" d="M124.6,32.7c-0.4,0-0.7-0.1-1-0.3c-0.7-0.4-0.8-1.2-0.2-1.7c4.3-3.8,6.7-8.6,6.7-13.5c0-5.6-3-10.9-8.5-14.9
			c-0.6-0.5-0.6-1.2,0-1.7c0.6-0.5,1.7-0.5,2.3,0c6.1,4.4,9.4,10.3,9.4,16.6c0,5.5-2.6,10.8-7.4,15
			C125.6,32.5,125.1,32.7,124.6,32.7L124.6,32.7z"/>
		<path class="st0" d="M117.7,22.5c-0.3,0-0.6-0.1-0.8-0.2c-0.5-0.4-0.6-1-0.2-1.5c1.1-1.1,1.7-2.6,1.7-4.1c0-1.7-0.8-3.3-2.2-4.5
			c-0.5-0.4-0.5-1.1,0-1.5c0.5-0.4,1.3-0.4,1.7,0c1.9,1.6,2.9,3.7,2.9,6c0,2-0.8,3.9-2.3,5.4C118.5,22.4,118.1,22.5,117.7,22.5
			L117.7,22.5z"/>
	</g>
	<g>
		<path class="st1" d="M26.3,31.6l-7.3-19l-7.4,19L0.3,3.5h3.8L11.6,22l7.6-19.3l7.3,19.4l8.1-18.6h4L26.3,31.6z"/>
		<path class="st1" d="M53.1,31.4c-7.4,0-14.3-5.7-14.3-13.5c0-8.6,5.6-14.8,14.7-14.8c7.4,0,13.9,6.3,13.9,14.2
			C67.5,25.1,60.9,31.4,53.1,31.4z M53.1,6.6c-6,0-10.8,4.8-10.8,10.7c0,5.8,4.8,10.6,10.7,10.6c6,0,10.6-4.9,10.6-10.7
			C63.6,11.4,58.9,6.6,53.1,6.6z"/>
		<path class="st1" d="M84.7,30.7l-8.4-11.7h-1.2v11.7h-3.9V3.5h6c4.7,0,9.4,1.3,9.6,7.4c0.1,4-2.4,6.8-6.5,8l8.8,11.9H84.7z
			 M77,6.6h-1.9V16h1.5c3.2,0,6.7-1.6,6.5-5C82.9,7.4,79.9,6.6,77,6.6z"/>
		<path class="st1" d="M107.9,30.7l-11.4-12L96,19.2v11.5h-3.7V3.5H96v11.2l11.1-11.2h4.6L98.9,16.4l14,14.3H107.9z"/>
	</g>
	<g>
		<path class="st1" d="M139,30.5V3.3h3.7v23.6h8.2v3.6H139z"/>
		<path class="st1" d="M166,31.2c-7.4,0-14.3-5.7-14.3-13.5c0-8.6,5.6-14.8,14.7-14.8c7.4,0,13.9,6.3,13.9,14.2
			C180.3,24.9,173.8,31.2,166,31.2z M166,6.4c-6,0-10.8,4.8-10.8,10.7c0,5.8,4.8,10.6,10.7,10.6c6,0,10.6-4.9,10.6-10.7
			C176.5,11.2,171.8,6.4,166,6.4z"/>
		<path class="st1" d="M194,31.1c-7-0.1-10.1-5.2-10.1-9.7V3.3h3.6v17.3c0,5,2.6,6.9,6.2,7c3.8,0,6.4-1.9,6.4-7.7V3.3h3.6v18.2
			C203.8,26.8,199.8,31.1,194,31.1z"/>
		<path class="st1" d="M215.2,30.5h-6.6V3.3h6.6c9.8,0,14.6,6,14.5,13.7C229.7,24.7,223.2,30.5,215.2,30.5z M214.9,6.6h-2.5v20.6
			l3,0c5.9,0,11.2-3.9,11-10.5C226.1,10.9,222.3,6.6,214.9,6.6z"/>
	</g>
	<g>
		<path class="st1" d="M235.7,7.1c0,1.5-1.2,2.6-2.7,2.6c-1.5,0-2.7-1.2-2.7-2.6s1.2-2.6,2.7-2.6C234.5,4.5,235.7,5.6,235.7,7.1z
			 M231,7.1c0,1.2,0.9,2.1,2,2.1c1.1,0,2-0.9,2-2.1c0-1.2-0.9-2.1-2-2.1C231.9,5,231,6,231,7.1z M232.6,8.5H232V5.8
			c0.2,0,0.6-0.1,1-0.1c0.5,0,0.7,0.1,0.9,0.2c0.2,0.1,0.3,0.3,0.3,0.6c0,0.3-0.2,0.5-0.5,0.6v0c0.3,0.1,0.4,0.3,0.5,0.6
			c0.1,0.4,0.1,0.5,0.2,0.6h-0.6c-0.1-0.1-0.1-0.3-0.2-0.6c0-0.3-0.2-0.4-0.5-0.4h-0.3V8.5z M232.6,7h0.3c0.3,0,0.6-0.1,0.6-0.4
			c0-0.2-0.2-0.4-0.6-0.4c-0.2,0-0.3,0-0.3,0V7z"/>
	</g>
</g>
</svg>
